<?xml version="1.0" encoding="UTF-8" standalone="no"?>
<svg
        xmlns:dc="http://purl.org/dc/elements/1.1/"
        xmlns:cc="http://creativecommons.org/ns#"
        xmlns:rdf="http://www.w3.org/1999/02/22-rdf-syntax-ns#"
        xmlns="http://www.w3.org/2000/svg"
        id="svg1646"
        version="1.1"
        viewBox="0 0 8.4666667 8.4666667"
        height="32"
        width="32">
  <defs
     id="defs1640" />
  <metadata
     id="metadata1643">
    <rdf:RDF>
      <cc:Work
         rdf:about="">
        <dc:format>image/svg+xml</dc:format>
        <dc:type
           rdf:resource="http://purl.org/dc/dcmitype/StillImage" />
        <dc:title></dc:title>
      </cc:Work>
    </rdf:RDF>
  </metadata>
  <g
     transform="translate(0,-288.53333)"
     id="layer1">
    <path
       id="path1614"
       d="m 4.4772774,289.05406 c -0.9255083,-0.0608 -1.8546089,-0.0656 -2.056918,0.0342 -0.404571,0.19945 -2.24908319,2.95933 -2.27865751,3.40944 -0.0295724,0.45008 1.43796181,3.42763 1.81295951,3.67825 0.3750224,0.25071 3.6870721,0.46832 4.0916728,0.26886 0.4045713,-0.19948 2.2490832,-2.95935 2.2786556,-3.40943 0.029574,-0.45011 -1.4379609,-3.42765 -1.8129584,-3.67827 -0.1876653,-0.12519 -1.1092459,-0.24229 -2.034754,-0.3031 z m -0.052214,0.79467 a 2.9238702,2.9238702 0 0 1 2.7260889,3.10956 2.9238702,2.9238702 0 0 1 -3.1095196,2.72608 2.9238702,2.9238702 0 0 1 -2.7260925,-3.1095 2.9238702,2.9238702 0 0 1 3.1095232,-2.72614 z m -0.099042,1.50737 a 1.4137551,1.4137551 0 0 0 -1.5031456,1.3178 1.4137551,1.4137551 0 0 0 1.3177978,1.50312 1.4137551,1.4137551 0 0 0 1.5031427,-1.31776 1.4137551,1.4137551 0 0 0 -1.3177949,-1.50316 z m 0.176254,1.03328 a 0.59203193,0.59203193 0 0 1 0.5527731,0.62951 0.59203193,0.59203193 0 0 1 -0.63045,0.55271 0.59203193,0.59203193 0 0 1 -0.5517681,-0.63039 0.59203193,0.59203193 0 0 1 0.629445,-0.55183 z"
       style="opacity:1;fill:#f9f9f9;fill-opacity:1;stroke:none;stroke-width:0.02030529;stroke-miterlimit:4;stroke-dasharray:none;stroke-opacity:0.26415094" />
  </g>
</svg>
